<svg width="20" height="18" viewBox="0 0 20 18" fill="none" xmlns="http://www.w3.org/2000/svg">
<path d="M14.1663 17.3942C15.7838 17.0959 17.208 16.6171 18.0818 16.2854C18.8859 15.9804 19.4001 15.2325 19.4443 14.3963C19.5034 13.2796 19.583 11.2171 19.583 8.20837C19.583 5.3317 19.5105 3.32003 19.4526 2.17253C19.4018 1.16587 18.3909 0.574199 17.4984 0.887533C16.4073 1.26945 15.2947 1.58708 14.1663 1.83878V17.3942ZM12.9163 1.8917C11.558 1.38837 10.2376 1.04337 9.22467 0.819199C8.76637 0.717538 8.30568 0.626956 7.84301 0.547533C7.72872 0.527966 7.61427 0.509355 7.49967 0.491699V16.0042C8.82342 16.2075 10.1313 16.5575 11.1418 16.8704C11.6905 17.0404 12.1476 17.1979 12.4668 17.3129C12.6172 17.367 12.7671 17.4227 12.9163 17.48V1.8917ZM2.33426 1.71462C3.20801 1.38253 4.63217 0.903783 6.24967 0.605449V16.1609C5.12111 16.4116 4.00845 16.7293 2.91759 17.1121C2.02509 17.4254 1.01467 16.8338 0.963424 15.8271C0.905508 14.68 0.833008 12.6679 0.833008 9.7917C0.833008 6.78295 0.912174 4.72003 0.971341 3.60337C1.01551 2.76712 1.53051 2.01962 2.33426 1.71462Z" fill="#0E1F47"/>
</svg>
