<svg width="24" height="24" viewBox="0 0 24 24" fill="none" xmlns="http://www.w3.org/2000/svg">
<path d="M19.2869 16.7583C18.4507 18.2044 17.2489 19.4053 15.8022 20.2405C14.3555 21.0758 12.7146 21.5159 11.0441 21.5169C5.82286 21.5169 1.52686 17.2209 1.52686 11.9997C1.52686 6.77842 5.82368 2.48242 11.0441 2.48242C16.2645 2.48242 20.5613 6.77842 20.5613 11.9997" stroke="#0E1F47" stroke-width="1.8" stroke-miterlimit="10"/>
<path d="M11.3717 7C11.9204 7 12.4467 7.21798 12.8347 7.60599C13.2227 7.99399 13.4407 8.52024 13.4407 9.06897V11.9655H9.30273V9.06897C9.30273 8.52024 9.52071 7.99399 9.90872 7.60599C10.2967 7.21798 10.823 7 11.3717 7Z" stroke="#0E1F47" stroke-width="1.5" stroke-miterlimit="10"/>
<path d="M14.8276 16.5732H7.82759C7.6081 16.5732 7.3976 16.486 7.24239 16.3308C7.08719 16.1756 7 15.9651 7 15.7456V12.7929C7 12.3539 7.17438 11.9329 7.48479 11.6225C7.79519 11.3121 8.21619 11.1377 8.65517 11.1377H14.0001C14.439 11.1377 14.86 11.3121 15.1704 11.6225C15.4808 11.9329 15.6552 12.3539 15.6552 12.7929V15.7456C15.6552 15.9651 15.568 16.1756 15.4128 16.3308C15.2576 16.486 15.0471 16.5732 14.8276 16.5732Z" fill="#0E1F47"/>
<path d="M22.1587 11.5859C22.214 11.5861 22.2684 11.6009 22.3162 11.6288C22.364 11.6568 22.4035 11.6968 22.4309 11.7449C22.4583 11.793 22.4725 11.8475 22.472 11.9029C22.4716 11.9582 22.4566 12.0125 22.4285 12.0601L20.8321 14.7424C20.8041 14.789 20.7646 14.8276 20.7173 14.8544C20.67 14.8812 20.6166 14.8952 20.5623 14.8952C20.5079 14.8952 20.4545 14.8812 20.4072 14.8544C20.3599 14.8276 20.3204 14.789 20.2925 14.7424L18.6961 12.0601C18.6677 12.0126 18.6525 11.9583 18.6519 11.903C18.6513 11.8476 18.6654 11.793 18.6927 11.7448C18.72 11.6967 18.7596 11.6566 18.8074 11.6287C18.8553 11.6008 18.9096 11.586 18.965 11.5859H22.1587Z" fill="#0E1F47"/>
</svg>
