<svg width="24" height="19" viewBox="0 0 24 19" fill="none" xmlns="http://www.w3.org/2000/svg">
<path d="M20.7188 18.9188H2.53125L2.25 18.525C0.76875 16.5188 0 14.1375 0 11.6438C0 5.23125 5.2125 0 11.625 0C18.0375 0 23.2687 5.2125 23.2687 11.6438C23.2687 14.1375 22.4812 16.5188 21.0187 18.525L20.7188 18.9188ZM3.525 16.9875H19.725C20.775 15.3938 21.3187 13.5563 21.3187 11.6438C21.3187 6.3 16.9688 1.93125 11.6063 1.93125C6.2625 1.93125 1.9125 6.28125 1.9125 11.6438C1.93125 13.575 2.475 15.4125 3.525 16.9875Z" fill="white"/>
<path d="M19.2564 10.1439L16.3126 10.7627C16.2939 10.1252 16.1439 9.4502 15.8439 8.83145C15.5626 8.19395 15.1126 7.6127 14.5501 7.1252C13.9876 6.6377 13.3314 6.24395 12.5814 6.0002C11.8314 5.7752 11.0064 5.68145 10.2001 5.75645C8.55015 5.90645 6.8814 6.7877 5.7564 8.2502C5.1939 8.98145 4.76265 9.8252 4.5189 10.7627C4.4439 10.9877 4.42515 11.2314 4.3689 11.4752C4.31265 11.7189 4.2939 11.9627 4.2939 12.2064C4.27515 12.6939 4.2939 13.2002 4.3689 13.7064L4.08765 13.7814C3.9189 13.1252 3.8064 12.4502 3.8064 11.7377C3.82515 7.40645 7.31265 3.91895 11.6251 3.91895C15.3939 3.91895 18.5439 6.6002 19.2564 10.1439Z" fill="white"/>
</svg>
